<?xml version="1.0" encoding="UTF-8"?>
<svg id="_layer_1" data-name="layer 1" xmlns="http://www.w3.org/2000/svg" version="1.1" viewBox="0 0 128 128">
  <defs>
    <style>
      .st0 { fill: url(#gradient_3); }
      .st1 { fill: url(#gradient_1); }
    </style>
    <linearGradient id="gradient_1" x1="-887.54" y1="601.04" x2="-886.54" y2="600.04" gradientTransform="translate(106509 72129) scale(120 -120)" gradientUnits="userSpaceOnUse">
      <stop offset="0" stop-color="#6366f1"/>
      <stop offset=".5" stop-color="#8b5cf6"/>
      <stop offset="1" stop-color="#a855f7"/>
    </linearGradient>
    <linearGradient id="gradient_3" x1="20.9" y1="64" x2="107.1" y2="64" gradientUnits="userSpaceOnUse">
      <stop offset="0" stop-color="#fef3c7"/>
      <stop offset="1" stop-color="#fcd34d"/>
    </linearGradient>
  </defs>
  <circle class="st1" cx="64" cy="64" r="60"/>
  <path class="st0" d="M100.82,50.48l-13.93,20.44,3.17,20.89h17.04l-6.28-41.33ZM20.9,91.81h17.04l3.17-20.89-13.93-20.44-6.28,41.33ZM104.38,35.87h-21.1l-1.12,1.48h0s-18.38,24.38-18.38,24.38l-1.13,1.5-.5-.73-17.73-26.01h0s-.42-.62-.42-.62h-20.39l3.16,4.63h0s13.93,20.44,13.93,20.44l11.25,16.5,9.79,14.36.22.32.24-.32,11.59-15.38,11.9-15.79h0s14.18-18.82,14.18-18.82l4.49-5.96Z"/>
</svg>